<svg xmlns="http://www.w3.org/2000/svg" viewBox="0 0 30 55"><defs><style>.cls-1,.cls-3{fill:#fff;}.cls-1,.cls-2{opacity:0.88;}</style></defs><title>header-logo</title><g id="Слой_2" data-name="Слой 2"><g id="Слой_3" data-name="Слой 3"><path class="cls-1" d="M29.84,46.94a.68.68,0,0,0-.34-.56L28,45.6a1.3,1.3,0,0,1,.38-2.45l.65-.1a.62.62,0,0,0,.53-.66c-.35-5.1-.9-10.92-1.58-11.16-1.09-.38-2.32-.75-3.66-1.08a5.83,5.83,0,0,0,0-.59,9,9,0,0,0-18,0c0,.14,0,.28,0,.42A39.59,39.59,0,0,0,2,31.24c-.38.13-.71,2-1,4.51a.64.64,0,0,0,.63.7H2a1.39,1.39,0,0,1,.62,2.59A15.51,15.51,0,0,0,.79,40.31a.64.64,0,0,0-.24.46C.2,45.41,0,50,0,50a2.94,2.94,0,0,0,2,2.77c.66.23,1.39.46,2.15.68.12-.15.22-.29.35-.44a11.41,11.41,0,0,1,1.1-1.1A1.17,1.17,0,0,1,7.5,53a10.78,10.78,0,0,0-.14,1.23,38.87,38.87,0,0,0,8.07.77A39.29,39.29,0,0,0,28,52.77,3,3,0,0,0,30,50S30,48.76,29.84,46.94ZM19.5,50h-8l2.12-8.49a4,4,0,1,1,3.76,0Zm2.84-20.29A38.13,38.13,0,0,0,15.43,29a38.79,38.79,0,0,0-7.08.58,7,7,0,1,1,14,.12Z"/><g class="cls-2"><polygon class="cls-3" points="14.5 0.54 14.5 18 16.36 18 16.5 0 14.5 0.54"/><polygon class="cls-3" points="12.5 9 12.5 5 12.5 5 12.5 3 12.5 3 12.5 3 10.5 3 10.5 3 6.5 3 6.5 5 10.5 5 10.5 9 7.5 9 7.5 11 10.5 11 12.5 11 12.5 11 12.5 9 12.5 9"/></g></g></g></svg>