<svg xmlns="http://www.w3.org/2000/svg" viewBox="0 0 540 270"><defs>

<style>

	/*.cls-1,
	.cls-3,
	.cls-6{opacity:0.88;}*/

	.cls-2,
	.cls-6 {fill: #e2e2e2;}

	.cls-3,
	.cls-5{fill:none;stroke:#e2e2e2;stroke-miterlimit:10;}

	.cls-4{opacity:0.4;}

	.cls-5{stroke-width:0.5px;stroke-dasharray:2.97 2.97;}

	.cls-7{fill:#d3aa50;}

	@keyframes smoke-main {
		50% {
			transform: translateY(-3px);
		}

		100% {
			transform: translateY(0);
		}
	}

	@keyframes smoke-circle {
		0% {
			transform: translateY(10px);
		}

		80% {
			transform: translateY(-5px);
		}

		100% {
			transform: translateY(-5px);
			r: 0;
		}
	}

	#smoke circle {
		animation: smoke-main linear 1.3s infinite;
	}

	#smoke circle:nth-child(1) {
		animation-duration: 1.2s;
	}

	#smoke circle:nth-child(2) {
		animation-duration: 1.1s;
	}

	#smoke circle:nth-child(3) {
		animation-duration: 1s;
	}

	#smoke circle:nth-child(4) {
		animation-duration: 1.1s;
	}

	#smoke circle:nth-child(5) {
		animation-duration: 1.2s;
	}

	#smoke circle:nth-child(6) {
		animation: smoke-circle ease-in-out 1.4s infinite;
	}

	#smoke circle:nth-child(7) {
		animation: smoke-circle linear 1.4s infinite;
	}

</style>

</defs><title>personal-logo-ed_1</title><g id="Слой_2" data-name="Слой 2"><g id="kit"><rect width="540" height="270"/><g class="cls-1"><path class="cls-2" d="M102.59,157.86v47.59a1.22,1.22,0,0,1-1.21,1.22H92.3a1.22,1.22,0,0,1-1.21-1.22V167.29a1.21,1.21,0,0,0-1.21-1.21H69.72a1.21,1.21,0,0,0-1.21,1.21v38.16a1.22,1.22,0,0,1-1.21,1.22H58.22A1.22,1.22,0,0,1,57,205.45V157.86a1.21,1.21,0,0,1,1.21-1.21h43.16A1.21,1.21,0,0,1,102.59,157.86Z"/><path class="cls-2" d="M147,158.86a17.94,17.94,0,0,1,7.54,25.55A16.88,16.88,0,0,1,147,190.7a28.25,28.25,0,0,1-11.54,2.18h-8.86a1.22,1.22,0,0,0-1.22,1.21v11.36a1.22,1.22,0,0,1-1.21,1.22H115a1.22,1.22,0,0,1-1.21-1.22V157.86a1.21,1.21,0,0,1,1.21-1.21h20.44A27.92,27.92,0,0,1,147,158.86Zm-4.25,22.33a7.83,7.83,0,0,0,2.71-6.39,7.93,7.93,0,0,0-2.71-6.47c-1.82-1.5-4.46-2.25-7.94-2.25h-8.21a1.22,1.22,0,0,0-1.22,1.21v14.94a1.22,1.22,0,0,0,1.22,1.22h8.21C138.28,183.45,140.92,182.69,142.74,181.19Z"/><path class="cls-2" d="M177.82,204.17a25,25,0,0,1-9.79-9.26,26.59,26.59,0,0,1,0-26.51,24.93,24.93,0,0,1,9.79-9.25,31,31,0,0,1,28.05,0,25,25,0,0,1,13.36,22.51,25.08,25.08,0,0,1-3.57,13.25,25.36,25.36,0,0,1-9.79,9.26,31,31,0,0,1-28.05,0Zm22-8.54a14.52,14.52,0,0,0,5.61-5.68,17.86,17.86,0,0,0,0-16.58,14.52,14.52,0,0,0-5.61-5.68,16.71,16.71,0,0,0-16,0,14.65,14.65,0,0,0-5.61,5.68,17.86,17.86,0,0,0,0,16.58,14.65,14.65,0,0,0,5.61,5.68,16.78,16.78,0,0,0,16,0Z"/><path class="cls-2" d="M234.51,157.18l9,13.15a1.21,1.21,0,0,0,2,0l9-13.15a1.21,1.21,0,0,1,1-.53h10.61a1.22,1.22,0,0,1,1,1.91L252.28,179.9a1.22,1.22,0,0,0,0,1.38l16.22,23.48a1.22,1.22,0,0,1-1,1.91H256.78a1.21,1.21,0,0,1-1-.52l-10.28-14.64a1.21,1.21,0,0,0-2,0l-10.16,14.63a1.22,1.22,0,0,1-1,.52H222a1.22,1.22,0,0,1-1-1.91l16.05-23a1.2,1.2,0,0,0,0-1.38l-14.95-21.84a1.22,1.22,0,0,1,1-1.9h10.43A1.22,1.22,0,0,1,234.51,157.18Z"/><path class="cls-2" d="M282.31,204.17a25,25,0,0,1-9.79-9.26,26.59,26.59,0,0,1,0-26.51,24.93,24.93,0,0,1,9.79-9.25,30.93,30.93,0,0,1,28,0,25.52,25.52,0,0,1,0,45,30.93,30.93,0,0,1-28,0Zm22-8.54A14.65,14.65,0,0,0,310,190a17.86,17.86,0,0,0,0-16.58,14.65,14.65,0,0,0-5.61-5.68,16.71,16.71,0,0,0-16,0,14.52,14.52,0,0,0-5.61,5.68,17.86,17.86,0,0,0,0,16.58,14.52,14.52,0,0,0,5.61,5.68,16.78,16.78,0,0,0,16,0Z"/><path class="cls-2" d="M363.38,158.86a17.93,17.93,0,0,1,7.53,25.55,16.8,16.8,0,0,1-7.53,6.29,28.25,28.25,0,0,1-11.54,2.18H343a1.21,1.21,0,0,0-1.21,1.21v11.36a1.22,1.22,0,0,1-1.21,1.22H331.4a1.22,1.22,0,0,1-1.22-1.22V157.86a1.22,1.22,0,0,1,1.22-1.21h20.44A27.92,27.92,0,0,1,363.38,158.86Zm-4.26,22.33a7.84,7.84,0,0,0,2.72-6.39,7.93,7.93,0,0,0-2.72-6.47q-2.72-2.25-7.93-2.25H343a1.21,1.21,0,0,0-1.21,1.21v14.94a1.22,1.22,0,0,0,1.21,1.22h8.22C354.67,183.45,357.31,182.69,359.12,181.19Z"/><path class="cls-2" d="M393,204.17a24.89,24.89,0,0,1-9.79-9.26,26.59,26.59,0,0,1,0-26.51,24.86,24.86,0,0,1,9.79-9.25,30.93,30.93,0,0,1,28,0,25.52,25.52,0,0,1,0,45,30.93,30.93,0,0,1-28,0Zm22-8.54a14.65,14.65,0,0,0,5.61-5.68,17.86,17.86,0,0,0,0-16.58,14.65,14.65,0,0,0-5.61-5.68,16.73,16.73,0,0,0-16,0,14.65,14.65,0,0,0-5.61,5.68,17.94,17.94,0,0,0,0,16.58,14.65,14.65,0,0,0,5.61,5.68,16.8,16.8,0,0,0,16,0Z"/><path class="cls-2" d="M483.74,185a11.82,11.82,0,0,1,2.43,7.57,12.15,12.15,0,0,1-5,10.36q-5,3.72-14.4,3.72H443.3a1.22,1.22,0,0,1-1.22-1.22V157.86a1.22,1.22,0,0,1,1.22-1.21h22.08q8.72,0,13.58,3.36a11,11,0,0,1,4.85,9.57,11.6,11.6,0,0,1-1.85,6.54,12.31,12.31,0,0,1-3.2,3.28,1.16,1.16,0,0,0,.17,2A12.37,12.37,0,0,1,483.74,185Zm-30.15-8.86a1.21,1.21,0,0,0,1.21,1.21h9.58a9,9,0,0,0,5.72-1.54,6.22,6.22,0,0,0,0-9,8.92,8.92,0,0,0-5.68-1.58H454.8a1.22,1.22,0,0,0-1.21,1.22Zm20.86,15.5q0-6.21-8.14-6.21H454.8a1.21,1.21,0,0,0-1.21,1.21v10.22a1.21,1.21,0,0,0,1.21,1.21h11.51Q474.46,198.09,474.45,191.66Z"/></g><g class="cls-1"><path class="cls-2" d="M92.53,102.29q0-16.85-11.53-26.46T49.36,66.22H11.47A2.46,2.46,0,0,0,9,68.69v98.55a2.47,2.47,0,0,0,2.47,2.47h9.85a2.47,2.47,0,0,0,2.46-2.47V140.83a2.47,2.47,0,0,1,2.47-2.46H49.36q20.1,0,31.64-9.61T92.53,102.29ZM70.35,119.52q-7.39,6-21.43,6H26.25A2.47,2.47,0,0,1,23.78,123V81.55a2.48,2.48,0,0,1,2.47-2.47H48.92q14,0,21.43,6t7.4,17.22Q77.75,113.53,70.35,119.52Z"/><path class="cls-2" d="M123.55,138.29a42,42,0,0,1,0-40.65A37.63,37.63,0,0,1,138,83.37a41.46,41.46,0,0,1,20.62-5.18,40.67,40.67,0,0,1,20.48,5.18,37.93,37.93,0,0,1,14.34,14.27,42,42,0,0,1,0,40.65c-.39.67-.79,1.32-1.21,2a2.11,2.11,0,0,0,1.75,3.28h10.06a5.16,5.16,0,0,0,4.68-3A53.46,53.46,0,0,0,213.51,118a52.33,52.33,0,0,0-7.1-27.12,50.36,50.36,0,0,0-19.66-18.93A57.59,57.59,0,0,0,158.66,65a57.9,57.9,0,0,0-28.24,6.87,50.84,50.84,0,0,0-19.73,19A52.13,52.13,0,0,0,103.52,118,52.56,52.56,0,0,0,108.6,141a4.35,4.35,0,0,0,3.92,2.49h9.81a2.49,2.49,0,0,0,2.06-3.86Q124,139,123.55,138.29Z"/><path class="cls-2" d="M245.38,102.78l21.91,36.56a8.63,8.63,0,0,0,7.4,4.19H288a8.62,8.62,0,0,0,7.41-4.21l22-36.95a2.59,2.59,0,0,1,4.82,1.32l.07,37.25a2.6,2.6,0,0,0,2.59,2.59h9a2.59,2.59,0,0,0,2.59-2.6l-.1-72.12a2.59,2.59,0,0,0-2.59-2.59h-6.67a5,5,0,0,0-4.32,2.48L286,131.58a5,5,0,0,1-8.68,0l-37.41-63a4.81,4.81,0,0,0-4.13-2.35H229a2.59,2.59,0,0,0-2.59,2.59v72.13a2.59,2.59,0,0,0,2.59,2.59h9a2.59,2.59,0,0,0,2.59-2.59V104.11A2.6,2.6,0,0,1,245.38,102.78Z"/><path class="cls-2" d="M394.51,66.22H383.2a2.55,2.55,0,0,0-2.32,1.5l-32.8,72.42a2.4,2.4,0,0,0,2.19,3.39h77a2.61,2.61,0,0,0,2.37-3.68l-32.76-72.1A2.59,2.59,0,0,0,394.51,66.22ZM391,86.3l18.64,42.34a2.4,2.4,0,0,1-2.2,3.37H370.16a2.4,2.4,0,0,1-2.2-3.37L386.6,86.3A2.4,2.4,0,0,1,391,86.3Z"/><path class="cls-2" d="M515.6,68.6v39.6a2.52,2.52,0,0,1-2.52,2.52h-54.4a2.52,2.52,0,0,1-2.52-2.52V68.6a2.37,2.37,0,0,0-2.37-2.38h-10a2.37,2.37,0,0,0-2.38,2.38V141a2.52,2.52,0,0,0,2.52,2.52h9.75a2.51,2.51,0,0,0,2.51-2.52V126.1a2.52,2.52,0,0,1,2.52-2.52h54.4a2.52,2.52,0,0,1,2.52,2.52v41.31a2.29,2.29,0,0,0,2.29,2.3h9.93a2.56,2.56,0,0,0,2.56-2.56V68.6A2.37,2.37,0,0,0,528,66.22H518A2.37,2.37,0,0,0,515.6,68.6Z"/></g><line class="cls-3" x1="278.71" y1="84.39" x2="278.71" y2="96.52"/><line class="cls-3" x1="283.64" y1="78.23" x2="283.64" y2="90.36"/><line class="cls-3" x1="496.64" y1="140.59" x2="486.14" y2="146.66"/><circle class="cls-3" cx="100.07" cy="47.43" r="6.16"/><circle class="cls-3" cx="369.88" cy="226.07" r="4.93"/><line class="cls-3" x1="145.36" y1="223.06" x2="134.85" y2="229.13"/>



<path class="cls-6" d="M478.46,108.76a10.13,10.13,0,0,0,.24-2.84,10.57,10.57,0,0,0-1.37-4.54,9.2,9.2,0,0,1-.52,4.7,8.17,8.17,0,0,1-.9,1.67l-2.51-8-1.09,8.35a8.88,8.88,0,0,1-1.17-1.49,9.39,9.39,0,0,1-1.35-4.54,10.66,10.66,0,0,0-.53,4.7,10.32,10.32,0,0,0,.71,2.77,10.53,10.53,0,0,0-3.51,3.19l7.07-.62a7.06,7.06,0,0,1,.67-2.54c0,.59,1,1.12,1.45,2.35l6.83-.6A10.49,10.49,0,0,0,478.46,108.76Zm-5.74-.31h.08Zm2.89-.25h-.11l.12,0Z"/><path class="cls-6" d="M499.33,100.33a5.74,5.74,0,0,0-2.5-4.6h0l-.3-.2c-1.81-1-4.17-.81-6-.42a21,21,0,0,1,6-2.23c-.76-2.8-2.5-6.09-4.53-6.09a3.2,3.2,0,0,0-2.35,1.45,3.5,3.5,0,0,1,.67.66c1.39,1.86-2.47,2.69-3.13,6-.4,2,.51,4.22,1.45,5.87a23.46,23.46,0,0,1-3.06-3.53,5.35,5.35,0,0,0-1,3c0,3,2.62,5.54,6.07,6.06v5.11h2.47v-5.09C496.62,106,499.33,103.41,499.33,100.33Z"/><g class="cls-1"><polygon class="cls-2" points="39.12 103.52 32.32 115.48 45.93 115.48 39.12 103.52"/><polygon class="cls-2" points="39.12 110.91 29.27 125.69 48.98 125.69 39.12 110.91"/></g><path class="cls-6" d="M62.39,123.63a10,10,0,0,0,.19-2.85,10.28,10.28,0,0,0-1.43-4.51,9.08,9.08,0,0,1-.45,4.7,9.19,9.19,0,0,1-.87,1.69l-2.63-8-1,8.36A7.92,7.92,0,0,1,55,121.55,9.3,9.3,0,0,1,53.63,117a10.62,10.62,0,0,0-.47,4.71,10.45,10.45,0,0,0,.75,2.75,10.66,10.66,0,0,0-3.47,3.24l7.07-.72a7.05,7.05,0,0,1,.63-2.54c0,.59,1,1.1,1.48,2.33l6.82-.69A10.45,10.45,0,0,0,62.39,123.63Zm-5.75-.23h.08Zm2.89-.29h0Z"/><circle class="cls-3" cx="88.37" cy="34.5" r="3.7"/>

	<g id="planet">
		<animateTransform
	      attributeName="transform"
	      attributeType="XML"
	      type="rotate"
	      from="0 159 117"
	      to="360 159 117"
	      dur="40s"
	      repeatCount="indefinite" />

		<path class="cls-6" d="M172,111.73c-.15-.1-.28-.22-.44-.31a10.42,10.42,0,0,0-5.24-.85,16.2,16.2,0,0,0-4.51.74,5.88,5.88,0,0,1-4,.15,3.85,3.85,0,0,1-2-1.71,9.92,9.92,0,0,0-1.87-2.1,14.78,14.78,0,0,0-5.11-2.78,14.93,14.93,0,0,0-3.62,4.21,17.5,17.5,0,0,1,4.9,3.17,12.43,12.43,0,0,1,2.22,2.34,3.86,3.86,0,0,0,1.4,1.3c1.53.9,2.8.88,5.1.83,1.08,0,2.31,0,3.85,0a43.22,43.22,0,0,1,7.51.94,13.88,13.88,0,0,1,2.45.9,13.76,13.76,0,0,0,.18-2.15A14.55,14.55,0,0,0,172,111.73Z"/>

		<path class="cls-6" d="M169.84,118.87a42.21,42.21,0,0,0-7.27-.91c-1.51-.06-2.71,0-3.77,0-2.36,0-3.92.08-5.76-1a5.21,5.21,0,0,1-1.76-1.62,11,11,0,0,0-2-2.13,16.24,16.24,0,0,0-4.67-3,14.67,14.67,0,0,0-1.4,6.24c0,.11,0,.21,0,.32,1.47-.13,2.66,1.35,3.17,2a20,20,0,0,0,10.78,6.32,7.59,7.59,0,0,0,3.2-.07,6,6,0,0,1,3.34.08,9.38,9.38,0,0,1,3.94,2.52,14.77,14.77,0,0,0,4.71-7.76A12.22,12.22,0,0,0,169.84,118.87Z"/>

		<path class="cls-6" d="M163.34,126.25a4.85,4.85,0,0,0-2.74-.06,8.66,8.66,0,0,1-3.66.08,21.27,21.27,0,0,1-11.46-6.69c-.42-.53-1.39-1.74-2.2-1.62h0a14.76,14.76,0,0,0,23.41,10.39A8.08,8.08,0,0,0,163.34,126.25Z"/>

		<path class="cls-6" d="M154.68,106.72a11.3,11.3,0,0,1,2.08,2.32,2.65,2.65,0,0,0,1.43,1.26,4.72,4.72,0,0,0,3.27-.17,17.1,17.1,0,0,1,4.82-.79,12.94,12.94,0,0,1,5,.6A14.74,14.74,0,0,0,150,104,15.56,15.56,0,0,1,154.68,106.72Z"/>

	</g>

	<g class="cls-4">
		<rect class="cls-5" x="130.25" y="88.7" width="56.67" height="56.67" rx="28.34" ry="28.34"/>
	</g>


	<g id="planet-orbit">
		<g>
			<animateTransform
		      attributeName="transform"
		      attributeType="XML"
		      type="rotate"
		      from="0 159 117"
		      to="360 159 117"
		      dur="12s"
		      repeatCount="indefinite" />

			<circle class="cls-7" cx="137.03" cy="134.9" r="3.46"/>

			<path d="M137,132.44a2.47,2.47,0,1,1-2.46,2.46,2.46,2.46,0,0,1,2.46-2.46m0-2a4.47,4.47,0,1,0,4.46,4.46,4.46,4.46,0,0,0-4.46-4.46Z"/>
		</g>

		<g>
			<animateTransform
		      attributeName="transform"
		      attributeType="XML"
		      type="rotate"
		      from="0 159 117"
		      to="360 159 117"
		      dur="16s"
		      repeatCount="indefinite" />

			<path class="cls-7" d="M176.45,100.18a4.7,4.7,0,1,1,4.7-4.7A4.7,4.7,0,0,1,176.45,100.18Z"/>

			<path d="M176.45,91.78a3.7,3.7,0,1,1-3.69,3.7,3.7,3.7,0,0,1,3.69-3.7m0-2a5.7,5.7,0,1,0,5.7,5.7,5.7,5.7,0,0,0-5.7-5.7Z"/>
		</g>
	</g>

	<g id="smoke">
		<circle class="cls-7" cx="404.5" cy="47.5" r="5.5"/>
		<circle class="cls-7" cx="397.5" cy="46.5" r="7.5"/>
		<circle class="cls-7" cx="388.5" cy="44.5" r="8.5"/>
		<circle class="cls-7" cx="378.5" cy="46.5" r="7.5"/>
		<circle class="cls-7" cx="371.5" cy="47.5" r="5.5"/>

		<circle id="smoke-particle-big" class="cls-7" cx="380" cy="29" r="4"/>
		<circle id="smoke-particel-small" class="cls-7" cx="391.5" cy="24.5" r="2.5"/>

		<path id="smoke-base" class="cls-7" d="M388.21,56.49a11,11,0,0,1-4.31-.85,6.11,6.11,0,0,1-.67.46,7.24,7.24,0,0,1,1.43,2.53,6.12,6.12,0,0,1,0,3.59h7.39a12.34,12.34,0,0,1,1.24-4.48c.14-.31.3-.59.46-.87a8.33,8.33,0,0,1-1.94-.95A11.56,11.56,0,0,1,388.21,56.49Z"/>
	</g>

</g></g></svg>