<svg xmlns="http://www.w3.org/2000/svg" viewBox="0 0 104 88"><defs><style>.cls-1{fill:#fff;opacity:0;}.cls-2{fill:#efb94b;}.cls-3{fill:#e2e2e2;}</style></defs><title>mill_3</title><g id="Слой_2" data-name="Слой 2"><g id="kit"><rect class="cls-1" width="104" height="88"/>

<path class="cls-3" d="M82.15,85.77l1.41-7.94-7.88-2.41,8,.42.11-2L76,69.42,67.8,73l-.11,2,8,.42L67.59,77,68,85h4l.42-3.75a3,3,0,0,1,6,.32L78,85Z"/><path class="cls-3" d="M36,85l.4-7.84-8.09-1.58,8-.42-.1-2L28,69.58,20.22,74l.1,2,8-.42L20.43,78l1.41,7.94L26,85l-.32-3.28a3,3,0,1,1,6-.31L32,85Z"/><path class="cls-3" d="M56.73,80.34,56.43,76H54.05a1,1,0,0,1,0-2h2.24L54.13,43.11A3,3,0,0,1,50,43.2l-1,14.8h2.11a1,1,0,0,1,0,2H48.8L47.39,80.17,42.05,85h7.09L50,81h1l1,4h10Z"/><path class="cls-3" d="M12.14,84.78a8.22,8.22,0,0,0-.93-6,7.32,7.32,0,0,1-.42,3.82A7.1,7.1,0,0,1,10.07,84L8,77.44l-.87,6.78A6.37,6.37,0,0,1,6.2,83a7.5,7.5,0,0,1-1.1-3.68,8.44,8.44,0,0,0,.14,6.06A8.6,8.6,0,0,0,2.39,88l5.75-.5a5.51,5.51,0,0,1,.54-2c0,.47.81.9,1.17,1.9l5.55-.48A8.46,8.46,0,0,0,12.14,84.78Zm-4.67-.25h.07Zm2.35-.2h0Z"/><path class="cls-3" d="M99.08,85.41a8.08,8.08,0,0,0,.58-2.24,8.38,8.38,0,0,0-.45-3.82A7.44,7.44,0,0,1,98.13,83a6.45,6.45,0,0,1-.95,1.21l-.88-6.77-2,6.52a6.91,6.91,0,0,1-.73-1.36,7.53,7.53,0,0,1-.43-3.81A8.52,8.52,0,0,0,92,82.5a8.94,8.94,0,0,0,.18,2.31,8.45,8.45,0,0,0-3.25,2l5.74.5a5.47,5.47,0,0,1,.89-1.92c-.07.47.64,1,.82,2.07l5.55.49A8.43,8.43,0,0,0,99.08,85.41Zm-4.55-1.06h0Zm2.34.21-.08,0h.08Z"/>

<g id="vint">
	<animateTransform
      attributeName="transform"
      attributeType="XML"
      type="rotate"
      from="0 52 39"
      to="360 52 39"
      dur="6s"
      repeatCount="indefinite" />

	<path class="cls-2" d="M45.91,13.36h0c-.16-.53-.58-.87-.93-.77L38.9,15.5h0l6.66-1C45.92,14.4,46.07,13.88,45.91,13.36Z"/><path class="cls-2" d="M47.09,18.52h0c-.16-.53-.57-.87-.92-.76l-6.09,2.91h0l6.67-1C47.1,19.57,47.26,19.05,47.09,18.52Z"/><path class="cls-2" d="M71.76,43h0c-.54-.13-.91-.52-.82-.88l2.53-6.25h0l-.59,6.72C72.8,43,72.29,43.15,71.76,43Z"/><path class="cls-2" d="M76.14,44.22h0c-.53-.13-.9-.53-.81-.89l2.53-6.24h0l-.59,6.71C77.19,44.16,76.68,44.34,76.14,44.22Z"/><path class="cls-2" d="M37.43,52.56h0c.41-.36,1-.42,1.19-.15l3.61,5.7h0l-5.12-4.39C36.87,53.44,37,52.93,37.43,52.56Z"/><path class="cls-2" d="M33.43,55.56h0c.41-.36,1-.42,1.19-.15l3.61,5.7h0l-5.12-4.39C32.87,56.44,33,55.93,33.43,55.56Z"/><path class="cls-3" d="M80.44,45l-12-4.69h0L57,38.68a4.25,4.25,0,0,1,0,1.07l9.22,3.62h0l14.1,2A.2.2,0,0,0,80.44,45Z"/><path class="cls-3" d="M50.14,21.67,44.79,8.23a.2.2,0,0,0-.39.1l1.67,14.36a.43.43,0,0,0,0,0l4.58,11.49a4.78,4.78,0,0,1,.93-.18L50.15,21.72A.07.07,0,0,0,50.14,21.67Z"/><path class="cls-3" d="M47.73,41.41l-8.41,6.25a.08.08,0,0,0,0,0l-9,11.35a.2.2,0,0,0,.28.29l11.6-8.63,0,0,6.4-8.11-.19-.2A4.67,4.67,0,0,1,47.73,41.41Z"/><circle class="cls-3" cx="52" cy="39" r="3"/>
</g>

</g></g></svg>