<svg xmlns="http://www.w3.org/2000/svg" viewBox="0 0 104 89.04"><defs>

	<style>
		.cls-1,.cls-4{fill:#fff;}.cls-1{opacity:0;}.cls-2{fill:#efb94b;}.cls-3{fill:#e2e2e2;}.cls-4{opacity:0.88;}

		@keyframes ufo {
			25% {
				transform: translateY(-1px);
			}

			50% {
				transform: translateY(0);
			}

			75% {
				transform: translateY(1px);
			}

			100% {
				transform: translateY(0);
			}
		}

		@keyframes cow {
			0% {
				opacity: 1;
				transform: translate(0, 30px);
			}

			40% {
				transform: translate(0, 0px);
			}

			70% {
				opacity: 1;
				transform: translate(0, 0px);
			}

			80% {
				opacity: 1;
			}

			100% {
				/opacity: 0;
				transform: translate(0, -40px);
			}
		}

		.ufo {
			animation: ufo linear 1.3s infinite;
		}

		.cow {
			animation: cow ease-in-out 3s infinite;
		}
	</style>

</defs><title>ufo</title><g id="Слой_2" data-name="Слой 2"><g id="kit"><rect class="cls-1" width="104" height="88"/><polygon class="cls-2" points="54.45 37.8 47.45 37.8 37.5 86 63.5 86 54.45 37.8"/><path class="cls-3" d="M12.14,85.78a8.22,8.22,0,0,0-.93-6,7.32,7.32,0,0,1-.42,3.82A7.1,7.1,0,0,1,10.07,85L8,78.44l-.87,6.78A6.37,6.37,0,0,1,6.2,84a7.5,7.5,0,0,1-1.1-3.68,8.44,8.44,0,0,0,.14,6.06A8.6,8.6,0,0,0,2.39,89l5.75-.5a5.51,5.51,0,0,1,.54-2c0,.47.81.9,1.17,1.9l5.55-.48A8.46,8.46,0,0,0,12.14,85.78Zm-4.67-.25h.07Zm2.35-.2h0Z"/><path class="cls-4" d="M95.73,82.7h0a1.85,1.85,0,0,1,0,.23,7.28,7.28,0,0,1-2.37,3.25,16.46,16.46,0,0,0,3.47-2.29c.86,1.36,1.52,3.41.66,4.45a2.24,2.24,0,0,1-1.61.7,2.76,2.76,0,0,0,0-.57c-.21-1.37-2.19.33-3.9-.51a4.27,4.27,0,0,1-1.87-2.79,14.13,14.13,0,0,0,.2,2.8,2.57,2.57,0,0,1-1.71-.56c-1.44-1.19-1.21-3.85.52-6s4.3-2.84,5.75-1.65A3.07,3.07,0,0,1,95.73,82.7Z"/><rect class="cls-3" x="77.32" y="75.16" width="2" height="11.8" transform="translate(152.85 165.62) rotate(-177.37)"/><path class="cls-3" d="M74.85,70.86h0a2.07,2.07,0,0,1,.25-.15,7.3,7.3,0,0,1,4.9-.12,16.83,16.83,0,0,0-4.75-2c.71-2.24,2.25-4.85,3.9-4.77A2.61,2.61,0,0,1,81,65.05a2.86,2.86,0,0,0-.57.51c-1.2,1.46,1.9,2.27,2.31,5a7.31,7.31,0,0,1-1.39,4.7A19.17,19.17,0,0,0,84,72.54a4.36,4.36,0,0,1,.68,2.51c-.13,2.76-2.91,4.87-6.23,4.72s-5.89-2.51-5.76-5.27A4.66,4.66,0,0,1,74.85,70.86Z"/><rect class="cls-3" x="20.96" y="75.16" width="2" height="11.8" transform="translate(-3.69 1.09) rotate(-2.63)"/><path class="cls-3" d="M25.44,74.86h0a2.07,2.07,0,0,0-.25-.15,7.3,7.3,0,0,0-4.9-.12,16.7,16.7,0,0,1,4.75-2c-.72-2.24-2.25-4.85-3.9-4.77a2.61,2.61,0,0,0-1.85,1.26,3.17,3.17,0,0,1,.57.51c1.19,1.46-1.9,2.27-2.31,5a7.31,7.31,0,0,0,1.39,4.7,19.17,19.17,0,0,1-2.61-2.75,4.36,4.36,0,0,0-.68,2.51c.13,2.76,2.91,4.87,6.22,4.72s5.89-2.51,5.77-5.27A4.68,4.68,0,0,0,25.44,74.86Z"/>

<g class="cow">
	

	<path d="M52,75.22h.06a3.29,3.29,0,0,0,.47.08l.18,0,0,.13a.9.9,0,0,0,0,.4l1,3.08.59-3.19a.77.77,0,0,0,0-.36l0-.13.13,0a5.09,5.09,0,0,0,3-2l.12-.16,2.52,1L58,72.29l0-.08c.22-.8-.16-1.44-1.36-2.28l-5.53-3.18v-.07a2.8,2.8,0,0,0-1.57-2.32l-.1,0,0-.1A3.31,3.31,0,0,1,51.9,62a.63.63,0,0,0,.06-.56.43.43,0,0,0-.33-.27H51l.18-.21a4.38,4.38,0,0,0,.74-1.13,4,4,0,0,1-.89.89,3.68,3.68,0,0,1-.76.43H48.63l.24-.21A4.88,4.88,0,0,0,50,59.38a4,4,0,0,1-2,1.47l-.05,0,0,0a3.15,3.15,0,0,0-3.48.34A8.22,8.22,0,0,0,46,63c.19.15,1.88.88,2,1l-.22.43-.13.08a3.06,3.06,0,0,0-.89.9l-.1.14a5.06,5.06,0,0,0-.89,2.39v0l0,0a.52.52,0,0,0-.12.13l.07.06-.06.1L44,70.64l-.68.84,2.32-1.61s0,0,0-.05l0,0,.16-.15,0,.21a4.86,4.86,0,0,0,.4,1l0,.06,0,.06s0,0,0,0,0,0,0,0l-1.49,3,2.62-1.81.07.06.13.12a1.86,1.86,0,0,0,.31.26l2.4,1.69-1.48,3Z"/>
</g>

<circle class="cls-3" cx="50.5" cy="7.5" r="1.5"/>

<g class="ufo">
	<path class="cls-3" d="M63.54,18.45c-.17.32-.41.55-.47.7-.49,1.12-6.78,1.55-9,1.38-.48,0-1.08-1.16-1.24-1.23,1.49-.27,5,.11,7.12-1l.61-.33h0a11.09,11.09,0,0,0-19.91.16h0l.31.17c2.12,1.07,5.51.69,7,1-.17.08-.67,1.2-1.23,1.23-2.3.15-8.42-.29-8.9-1.38a2.6,2.6,0,0,0-.23-.32c-3.44,1-6.92,2.59-6.92,4.29,0,2.16,5.71,3.72,9.75,4.18,0,.07.08.14.11.21,1.16.18,2.44.35,3.72.43,2.52.16,3.69-.1,3.7,0s.51,1,0,1.23c-1.07.52-3.9.51-6.19.43a11,11,0,0,0,17.7.15c-1.49-.07-3.54.13-5.33-.58-.32-.12.37-1.11,0-1.23a25.25,25.25,0,0,0,3.7,0c1-.07,2-.18,2.92-.31,0-.07.08-.13.11-.2,3.74-.13,9.81-1.81,9.81-4.31C70.6,21.17,66.93,19.29,63.54,18.45Z"/>
</g>

</g></g></svg>